<?xml version="1.0"?>
    
<!--********* Copyright (c) 2024 Pareto Softare, LLC DBA Simplemaps.com ***************************************
************* Free for Commercial Use, full terms at  https://simplemaps.com/resources/svg-license ************
************* Attribution is appreciated! https://simplemaps.com *******************************************-->

<svg baseprofile="tiny" fill="#6f9c76" height="972" stroke="#ffffff" stroke-linecap="round" stroke-linejoin="round" stroke-width=".5" version="1.2" viewbox="0 0 1000 972" width="1000" xmlns="http://www.w3.org/2000/svg">
 <g id="features">
  <path d="M169.4 97.1l3.1 2.8 2.9 3.2 3.3 1.1 9.3-0.1 0 8.1-1.3 6.8-1 8.6 1 7.3 0.9 5-1 6.8-0.3 8 0.7 6.8-0.5 8.5 1 6 2.4 5.4 2.9 5.4 1 0.4-5.5 10.1-7.7 11.5-4.8 7.6-3 3.2-0.5 3.8 1.5 8.6-0.2 11.8 0.4 13.6 1.7 14.8 2.4 15.3 2.3 14.1-0.1 18.5 4.6 7.8 5.1 7.2 1.4 5.5 1.8 11.9-0.1 0.2-1.1 1.4-1.9 2.7-6.3-1.5-3.7-3.8-5.9 1.2-2 0.1-5.5-0.9-2.2 1.3-3.9 2.5-3.6 0.1-7.7-3.2-2.7-2-7.4-1.2-3.6-4.8-0.9-4.8-1.6-3.7-3.3 1.1-4.2 2.8-1.1 0.8-3.2 2.8-5.1 2.4-5.2 2.2-5 2.3-3.8 0.7-8.2-4.7-5.4-2.1-2.7 0.8-5.2 1.6-4.5 1.6-2 1 1-8-1.6-15.9-0.2-1.4-5.3-26.5-14.2-31.7-6.8-9.2-1.6-8.2 0.3-0.2 2.6-1.4 4.9-2.7 0.6-0.3 0.4-0.3 0.9-0.5 10.6-5.6 1.7-0.5 1.1 0 3.1-0.3 1-0.5 0.5-0.3 7.2-9.3 6.1-9.9 5.2-6 3.6-7.4 0.9-2.7 0-2.3-1.4-4.7-0.3-2.4 0.3-2.6-0.1-1.2-1.8-3.9-1.7-7.1-4.3-11.5-0.1-1.2 0.6-4.4 0.9-1.6 3.7-4.1 3.8-6.9 2-1.6 0.3-0.2 0.7-0.6 0.2 0 6.3 0.1 3.2-1.3 0.9-0.7 0.4-0.4 0.4-0.5 0.7-1 1-2.3 2.4-2.3 0.8-2.3 0.5-5.4 1.3-1.4 0.6 0.1 0.5 0 1 0.6 1 0.4 1.2-0.3 1.9-1.6 0.7-0.4 1.4-0.9 1.9-1.9 2.3-5.4 1.6-1.7 4.3-2.1 13.5-6.4 5.4-2.6 7.8-3.8 1.3-0.6 0.6-0.3 4-2.7 0.7-0.7 0.5 0.3 0.3 0.3z" id="LYNL" name="Nalut">
  </path>
  <path d="M188 104.1l-9.3 0.1-3.3-1.1-2.9-3.2-3.1-2.8 0.8-0.2 1.4-2.1 1.8-1.6-0.2-3.2-1.9-3.3-1.5-1.9-2.6-2.1-1-2.6 0.6-4.3-0.2-2.8-0.2-1.8 0.5-2.6 0.3-2.5-0.9-2.5 1.2-3.6 0.2-0.5 0.7-2.1 0.3-0.1-0.2-1.5-0.1-0.3 0-3.7 0.3-1 0.6-1.3 0.8-1.7 0.3-1.4 0.1-0.3 0-0.1 0.1-0.8 0.8 0.6 0.8 1.8 0.9 0.7 1.8 0.9 7 1.1 2.1 0.8-1.1-1.3-3.8-1.2-1-1.3 2.8 1.6 6.2 2.1 13.5 8.6 2.4 2.5 2.2 0.6 3.7 2.5 4.6 2.2 2.5 0.7 13 1.4-1.1 0.9-3 9.8-2.3 3.8-7.2 4.8-2.9 3.9-4.5 2.2-5 2.4-1.4 3.6-13.6 3.2z m-20.6-59.5l0-0.4 1.2 0.3 1.7 0.6 0 0.1-0.1 0-0.1 0-0.1 0-0.1 0 0 0.1-0.1 0-0.1 0-0.1 0 0-0.1-0.1 0-0.1 0 0-0.1 0 0.1 0-0.1-0.1 0-0.1 0-0.1 0-0.1 0-0.1 0-0.1 0 0-0.1-0.1 0-0.1 0-0.1 0-0.1 0 0-0.1-0.1 0-0.1 0-0.1 0-0.1 0 0-0.1-0.1 0-0.1 0-0.1 0 0-0.1-0.1 0-0.1 0 0-0.1-0.1 0z" id="LYNQ" name="An Nuqat al Khams">
  </path>
  <path d="M610.3 781.9l0-0.4 0-4.5 0-0.7 0-0.6 0-0.7 0-0.6 0-0.7 0-0.6 0-0.7 0-0.6-0.1-31-0.2-31.1-0.1-31.2-0.1-31.3-0.2-31.5-0.1-31.5-0.1-31.7-0.1-31.9 0-32.4 0.1-32.6 19.6-0.1 19.5-0.1 25.2-0.2 25.2-0.2 34.6 0.5 34.6 0.4 33.7-0.2 33.7-0.2 33.7-0.6 33.8-0.6 21.3-0.5 20.1-0.5 0.1 0 0 12.2 0 12.6 0 18.8 0 18.8 0 18.7 0 18.7 0 18.6 0 18.6 0 18.5 0 18.5 0 18.4 0 18.4 0 18.4 0 18.3 0 18.3 0 18.2 0 18.2 0 18.2 0 7.7-0.1 7.8 0 7.7 0 7.7 0 7.8 0 7.7 0 7.7 0 7.7 0 7.7 0 7.6 0 7.7 0 7.7 0 5.8 0 5.9 0 5.8 0 5.9 0 6.8 0 0.1 0 0.3 0 0.1-0.1 0.1 0 0.1-0.1 0.1-0.1 0-0.2 0-0.1 0-0.1 0.1-5.8 0-8.4 0-7.1-0.1-7.2 0-7.7 0-6.5 0-4.9 0-8.2 0-1.1 0 0 7.7 0 7.6 0 7.7 0 6.8 0 0.8-7.1-3.7-7.1-3.7-7.2-3.8-7.1-3.7-7.1-3.8-7.1-3.7-7.2-3.7-7.1-3.8-7.1-3.7-7.1-3.8-7.1-3.7-7.2-3.8-7.1-3.7-1.9-1-5.2-2.8-7.1-3.7-7.2-3.8-7.1-3.7-7.1-3.8-7.1-3.7-7.1-3.8-7.2-3.8-7.1-3.7-7.1-3.8-7.1-3.7-2.1-1.2-5.1-2.6-7.1-3.8-7.1-3.7-7.1-3.8-7.1-3.8-7.2-3.8-7.1-3.7-7.1-3.8-7.1-3.8-7.2-3.8-7.1-3.8-7.1-3.7-7.1-3.8-7.1-3.8-5.9-3.1z" id="LYKF" name="Al Kufrah">
  </path>
  <path d="M609.3 520.6l0.1 31.9 0.1 31.7 0.1 31.5 0.2 31.5 0.1 31.3 0.1 31.2 0.2 31.1 0.1 31 0 0.6 0 0.7 0 0.6 0 0.7 0 0.6 0 0.7 0 0.6 0 0.7 0 4.5 0 0.4-1.3-0.7-7.1-3.8-7.1-3.8-7.1-3.8-7.1-3.8-7.2-3.8-7.1-3.8-7.1-3.8-7.1-3.8-7.2-3.8-7.1-3.8-7.1-3.8-7.1-3.8-7.1-3.8-7.2-3.8-7.1-3.8-7.1-3.9-7.1-3.8-7.2-3.8-7.1-3.8-7.1-3.8-7.1-3.9-7.1-3.8-7.2-3.8-7.1-3.8-7.1-3.9-4.5-2.4-0.8-0.4-1.1 0.2-2.6 1.2-3.3 1.7-3.4 1.6-3.3 1.6-3.3 1.7-3.3 1.6-3.4 1.7-3.3 1.6-3.3 1.7-3.3 1.6-3.4 1.6-3.3 1.7-3.3 1.6-3.3 1.6-3.4 1.7-3.3 1.6-3.3 1.7-1 0.5-0.1 0-9.8 5.4-9.9 5.4-9.9 5.4-9.8 5.4-3.7 2-0.9 0.1-0.8-0.4-2.6-2.4-7.2-6.4-7.2-6.4-7.3-6.5-7.2-6.4-3.2-3-6.8-3.8-5.8-1.4-5.1-1.2-5.1-1.3-5.1-1.2-5.1-1.2-5.1-1.3-5.1-1.2-5.1-1.2-5-1.3-5.1-1.2-5.1-1.2-5.1-1.3-5.1-1.2-5.1-1.3-5.1-1.2-5.1-1.2-3.5-0.9-1.5-0.4-4.5-8.9-4-8.3-6.5-13.2-0.1-0.2-4.1-8.5-3.6-7.2-0.4-0.9-1.5-2-1.9-1-2.4-0.8 0.8-8.7-1.4-8.2-7.1-12.9 0.2-12 0.2-13.2-0.4-12.6 3.8-10.3 11.2-6.4 10.4 5 4.9 1.6 10.8-0.9 6.6-0.9 5.8-5 5.9-5 7.9 1.6 7.2-0.8 4.7-3.8 5.4-2 9.5-3.2 13.9-1 5.9-4.4 5.9-7.4 4.1-3.7 10.8-2.7 15.3-5.6 0 0.1 11.4-1.4 6.6-2.6 10.2-4.4 6.6-6.8 5.9-6.7 6-6.2 4.8-4.9 8.4-3.2 7.3-1.9 10.3-2.6 10.9-1.3 10.9-2 6-1.3 29.9-8.2-0.5 4.7-0.1 4.7 0.5 5.4 2.6 3.4 2.8 1.3 5.1 2.6 3.5 2 3.2 4.6-0.5 6.6 3.1 6.6 6.1 6.4 4.4 2.7 4.6 3.2 3.3 4.6 8.8 1.8 9.8 2.2 8.5 3.1 4.8-2 4.2-2.7 7.5-0.6 4.7-1.4 7.5-5.5 2.7-3.3 6.2-3.3 8.2-2 6.7 3 5.3 6.2 5.9 5.4 5.8 0.6 6.5 1.7 9.1 1.8 7.8 1.9 6 2.1 2.5 1.2z" id="LYMQ" name="Murzuq">
  </path>
  <path d="M944.5 385.1l-0.1 0-0.6-0.1-0.5-0.1-27.4-0.7-27.4-0.6-27.3-0.6-27.4-0.7-0.1-43.1 0-43.4-0.1-43.7-0.1-44-1.2-0.5-1.2-0.5-1.2-0.5-1.2-0.5-0.1 0-0.1 0-0.1 0 0-13.9-0.7-5 0-10.3 1.7-11.5 4.9-7.3 2-10.6 0.7-12.2 2.9-10.5 2.9-8.1 1.8-6 0.1-0.4 0.4 0.2 0.9 0.2 0.7 0.5 0.4 0.7 0.6 1.5 0.5 0.5-0.1-1.1-0.6-3 1.1 0.4 2.5 0 0.5 0.3 1.6 1.3 0.4 0.2 7.2 0.7 8-0.1 9.9 2.3 9.1 3.7-1.4 1.4-0.2 0.5 0.5 0.3 1.5 0.6 3.6 2.9 1.3 0.3 11-0.1 15.3 1.1 5.2-1.6 1.2-0.9 0.7-0.3 2.3 0.5 0.5-0.1 0.5-0.3 0.4-0.1 0.5 0.3 0.2 0.1 0.7 0.5 0.8 0.2 1.1 0.6 1.9 0.3 2.4 0.9 6.7 1.5 2.1 1.3 0.9 2.2-0.6 2.7-0.1 1.5 0.4 1.2 2 2.2 3.1 4.5 0.3 1.2 0.8 1.9 1.1 2-0.2 0.2-0.1 0.2-3.6 2.9-1.6 2.4-2.1 5.7-9.4 7.7-0.7 2.2 0 2.4 0.6 5.7 0 5.5 1.4 7.2 0.4 1.4 2 4.2 0.7 3.4 2.6 5.4 0.7 2.7-0.3 2.3-0.9 2.3-0.7 2.7-0.6 3.7-1.8 4.6-0.1 1.3-0.6 2.3-1.1 2.3-3.4 5.1-1.7 1.8-1.6 2-0.5 0.9-1 2.3-2.4 4.3-0.9 2.4 0 2.6 0.5 1.4 1.6 3 5 12.4 0.2 1.5 0 1.3-1 3.5 0.4 2.8 2.9 5 0.9 2.7 0 1.6-0.5 4.8 0.1 2.6 0.6 2.3 4.7 11.6 1.1 3.6 0.4 3.8 0 8.1 0 11.1 0 26.2 0 25.8z" id="LYBU" name="Al Butnan">
  </path>
  <path d="M944.5 453.3l-0.1 0-20.1 0.5-21.3 0.5-33.8 0.6-33.7 0.6-33.7 0.2-33.7 0.2-34.6-0.4-34.6-0.5-25.2 0.2-25.2 0.2-19.5 0.1-19.6 0.1 0.1-86.9-9.7-0.7 0-0.1-16.5-5-12.6-4.3 0-24.6 0.8-19 3.8-13.6 6.9-9.8 2-9.8-1.1-11.1 0.7-11.2 2-12.9 1.1-12.1 8.4 5.5 2.4 1.1 5.1 0.7 5.2 0.1 5.4-0.6 3-0.9 2.7-0.8 4.6-2.3 6.5-4.2 1.1-0.5 2.6-0.5 1.2-0.6 7.7-6 9.5-11.6 2.5-4.4 1.4-2 2.1-1.7 1-1 3.7-7.8 2.7-7.4 0.3-2.9-0.3-8.6-0.3-0.5 0.7-0.3-0.2-0.6-0.2-0.3-0.6-0.7-0.2-0.6 3.2-0.2 6.4 2.1 2.5 3.9 4.3 5.8 6.1 4.2 4.1 1.3 8.3-0.5 11.3-2.2 22.2 0.8 4.5 0.1 14.9-0.7 3.5-1.5 4.4-1.8 10.3-1 8.1-0.8 8.5-1.7 4.4 3.9 7 6.3 3.2 6.7 6.2 4.3 4 0.9 5.8 1.7 5.7-0.1 4.6-0.5 0.1 0 0.1 0 0.1 0 1.2 0.5 1.2 0.5 1.2 0.5 1.2 0.5 0.1 44 0.1 43.7 0 43.4 0.1 43.1 27.4 0.7 27.3 0.6 27.4 0.6 27.4 0.7 0.5 0.1 0.6 0.1 0.1 0 0 5.1 0 23 0 2.5 0 9.9 0 21.9 0 5.8z" id="LYWA" name="Oases">
  </path>
  <path d="M74.2 349.4l2-1 4.5-1.6 5.2-1.6 2.7-0.8 5.4 2.1 8.2 4.7 3.8-0.7 5-2.3 5.2-2.2 5.1-2.4 3.2-2.8 1.1-0.8 4.2-2.8 3.3-1.1 1.6 3.7 0.9 4.8 3.6 4.8 7.4 1.2 2.7 2 7.7 3.2 3.6-0.1 3.9-2.5 2.2-1.3 5.5 0.9 2-0.1 5.9-1.2 3.7 3.8 6.3 1.5 1.9-2.7 1.1-1.4 0.1-0.2 1.8-3.5 7.3 2.1 2.7 0.4 7 2.9 4.2 0.5 4.6 0.3 3.5 0.7 0.6 5.1 5 2.5 5.7-0.2 4-4.2 1.9-4.5 3.4-3.1 3.3-2 5-3.1 6.4-3.4 6-6.8 5.4-7.4 3.3-5.3 3.5-4.8 2.9-4.8 2.7-5.7 4.6-5.9 3.6-4.4 3.1-2.8 6.5-5.4 4.9-1.4 4.7 1 3.5 2 7.5 3.7 6 4.4 4.8 5.2 3 3.8-0.1 3.6-0.3 6.5-0.4 8.1 0.8 7.2 2.7 5.3 3.4 5.2 3.4 3 4.2 3.4 10.4 6.7 6.9 7.4 1.9 7.3 0.1 5.1 1.3 4.8 6.1 1 7.3-0.8 7.6-4.3 7.3-0.8 4.7 0.3 7.6 2.6 4.1 1.2 5 5.1 0.9 5.4-1.4 5.3-2.3 6.2-1.9 5-0.1 1.4-13.3-1.3-8.5 3.2-3.7 1.9-10.3 1.3-6.1 0.7-8.5 3.8-4.2 7.4-7.2 4.4-6.1 3.7-5.4 3.8-2.3 3.7-3.6 3.1-6.1 0.7-19.2 2.1-20.6-4-15.9-5-9.2-1.6-10.3 2.7-13.7 8.9-11.3 8.9-15.5 12-17.2 12-15.4 10.8-13.6 9-7.7 5.1-0.9-9-2.1-8.4-3.6-16.8-2.3-13.2-1.5-9.1-1.8-15.1-3.2-7.1-5-3.5-7.5-2.7-13.5-2.5-11-3.2-11.2-3.2-11.1-4.9-7.8-4.6 0-0.3 0.1-1.7 0.2-0.4 0.1 0 0.7-0.5 0-0.5 0-1-0.1-0.2-0.2-0.7-7-25.6 2.3-17.7 0.7-5.6z" id="LYWS" name="Ash Shati'">
  </path>
  <path d="M161.3 549.6l-3.8 10.3 0.4 12.6-0.2 13.2-0.2 12 7.1 12.9 1.4 8.2-0.8 8.7-18.3-6.1-6.8-2.3-0.1-0.1-1.3-0.7-1.4-0.1-4.1-1.3-2.2-0.8-2.4-0.9-6.7-3-0.5 0.2-1.5 0.7-0.2 0-6.4 2.4-6.5 2.4-1.8 0-9.2-7.6-0.6-0.5-0.1-0.9-0.3-0.8-0.1-0.9-1.5-6.6-0.7-0.4-8.7-5.1-0.3-2.1-0.5-3.9-0.2-1.8-0.3-11.6-0.1-0.8-0.3-11.5-17.7-27.1-0.5-0.8-1.3-1.9-16.5-25.3-0.3-0.4 2.4-2.4 0.6-0.6 0.1-0.2 0.4-0.9 0.6-1.8 0.4-0.4 0.4-0.6 0.2-0.2 0.9-1.7 0.9-1.8 18.5-8.8 0.4-0.6 1.3-0.6 3-8.1-0.9-6.2 1.4-7.3 0.1-0.4-0.2-0.1-0.4-0.3-0.2-0.1-0.2-0.1-0.7-0.9-0.1-0.2-0.4-0.7 0-0.1-0.3-0.1-0.3-0.3-0.1-0.3-0.1-0.9 0-0.2-0.7-1.6-0.3-1.4-0.8-3.1-0.1-0.7 0.2-1.9-0.2-1 0-0.4-0.2-0.6-0.1-0.7-0.4-0.8 0.1-0.7-0.2-0.8 0-0.7-0.9-2.4-0.3-2.1-0.9-1.7-0.2-1.1-0.5-0.7 0.5-3.2 0.1-1.4 0-0.2-0.6 0 0.1-0.4 0.5-0.9-0.1-0.5 0.5-1.3 0.2-0.4 0.4-0.5 0-1.5 0.2-0.5 0.3-0.2-0.1-0.4-0.1-0.4 0.2-0.4 0.4-0.4 0.1-0.6 0.3-0.3 0.5-0.4 0.1-0.1 0.6-0.2 0.3-0.3 0.2-0.5 0.1-1.4 0.4-1.2 0.5-0.9-0.5 0-1-0.1-0.9 0-0.3-0.1-0.1-0.3 0.1-0.3 0.1-0.2 1.8-0.6 0.2-0.5 0.6-0.5 0.3-0.3 0.4-0.5 1.2-2.7 0.3-0.8 0.3-1 0.2-1 0.5-1.1 0.5-1.5-0.1-2.1 0.2-1.3 0-1.6 7.8 4.6 11.1 4.9 11.2 3.2 11 3.2 13.5 2.5 7.5 2.7 5 3.5 3.2 7.1 1.8 15.1 1.5 9.1 2.3 13.2 3.6 16.8 2.1 8.4 0.9 9-1.2 8.2-2.2 9.5-0.7 12.3 1.8 7.2 3.7 5.5z" id="LYGT" name="Ghat">
  </path>
  <path d="M586.9 234.5l-1.1 12.1-2 12.9-0.7 11.2 1.1 11.1-2 9.8-6.9 9.8-3.8 13.6-0.8 19 0 24.6 0 1.1-6.6-2.1-9.2-2.5-7.9-5.6-6.1-6.1-2.4-9.2-2.4-7.4-4.9-6.1-4.9-5.6-2.5-6.1-1.2-4.9-4.9-4.3-4.3 0-4.3 2.4-5.6 5-5.5-1.9-8.7-2.4-6.1-5.5-7.4-0.6-6.2 2.5-11.1 0.7-6.8-1.8-1 0.6 5.3-8 1.2-6.8-1.9-8.7-1.8-10.4-5-13.6-4.4-12.4-1.9-12.3-2.6-13.1-3.8-14.2-2.5-10-0.1-11.2 1-2.4 0.3-0.6 12.8 2.3 21.3 0.2 12.3 2.7 12.6 4.4 9.8 2.1 2 0 0.6 0.3 0.4 0.2 2.1 1.2 1.6 1.5 0.6 0.4 0.6 0.2 8.5 2.6 4.4 2.2 4.9 1.6 4.2 0.8 0.7 0.7 1.6 2.4 1.1 0.9 1.1 0.6 5.2 1.1 9.1 3.5 1.9 1.2 1.6 1.5 5.1 6 14.1 10.5 3.2 3.6 1.7 1.6 3.8 2.1 2.4 0.4 1.1 0.6z" id="LYSR" name="Surt">
  </path>
  <path d="M434.5 175.1l-0.3 0.6-1 2.4 0.1 11.2 2.5 10 3.8 14.2 2.6 13.1 1.9 12.3 4.4 12.4 5 13.6 1.8 10.4 1.9 8.7-1.2 6.8-5.3 8-2.7-1.8-5.6-1.8-8-2.4-5.5 1.9-5.6 3.1-3.6 3.1-8.1-1.1-4.3-4.9-3.8-6.1-1.8-1.8-3.8-1.8-6.8 0.1-4.9-1.8-5.6-1.2-8.7-2.9-4.4-4.9-4.3-4.2-2.7-1.5 0.7-1.3 3.8-4 2.8-5.1 0.1-7.6-0.7-8.5-1.1-10-5-3.6-0.3-0.2-4.5-2.2-12.7-3.5-6.3-4.6-5.4-2.3-8.4-4.5-3.2-7.8-5.2-13.1-7.6-14.2-1-1.2-3.2-2-3.7-2.2-6.3-7.9-3.2-4.6-1.9-7.2-2.7-6.2-3.6-7.3-2.2-10-3.2-6.1 3.6-0.1 9 0.3 3.6-0.6 5.7-1.7 3.3-1.3 3.8-0.1 3.5 1.7 1.8 0.2 4.3-0.9 3.2-3.8 9.4 6.6 4.6 4.7 6.1 2.1 7.5-0.9 3.8-0.6 0.9-6 2-5.6 2.2-2.8 0.2-4-1.6-3.8-0.5-3.5 1.2-4.8 0.7-1.6 0.1-0.7 8.9 0.4 11.7 2.1 2.7 1 1.2 0.2 0.8 0.4 2.2 2.9 2.1 1.2 0.8 0.8 0.5 2.5 0.5 1.4 1.2 2.5 2.4 3.3 0.4 1.1-0.1 1.4-0.5 2.5-0.2 2.7-0.1 1.6 0.4 5 0.5 2.4 6.9 18 1.4 2.4 6.2 8.9 3.8 4 4.2 3.4 16.4 7.6 5.3 1z" id="LYMI" name="Misratah">
  </path>
  <path d="M354.9 94.4l-0.1 0.7-0.7 1.6-1.2 4.8 0.5 3.5 1.6 3.8-0.2 4-2.2 2.8-2 5.6-0.9 6-3.8 0.6-7.5 0.9-6.1-2.1-4.6-4.7-9.4-6.6-3.2 3.8-4.3 0.9-1.8-0.2-3.5-1.7-3.8 0.1-3.3 1.3-5.7 1.7-3.6 0.6-9-0.3-3.6 0.1-0.3-4-1.6-6.3-3.7-4.7-2.8-3.2-0.9-1.1 6.6-2.1 2-1.3 0.9-3.5 2.9-6.4 4.3-1.4 2.8-0.8 7.5-3.5 0.9-0.1 5.2-0.5 0.2-1.3 4.4-4.9 3.7-3.2 2.2 0.9 10.6 1.8 0.6 0.3 1 0.9 0.3 0.2 1 0.5 2.1 2.1 3.2 2 5 4.4 2.6 2.8 1.1 0.4 9.4 1.6 0.9 0.5 0.9 0.8 2.5 1.4 1.2 0.4 1.7 0.1z" id="LYMB" name="Al Marqab">
  </path>
  <path d="M308.6 73.3l-3.7 3.2-4.4 4.9-0.2 1.3-5.2 0.5-0.9 0.1-7.5 3.5-2.8 0.8-4.3 1.4-2.9 6.4-0.9 3.5-2 1.3-6.6 2.1-2.8-3.8 0.2-4.8-1-7.3-0.6-5.7-5-4.9 2-4.2-0.4-5.6 0-0.5 0-0.4 0.7-0.3 1.8-1.5 1-0.6 1.3-0.3 4-0.2 5.5 1 0.6 0.4 0.6 0.5 11.5 6.1 2.6 0.6 9.8-0.4 2.5 0.4 4.9 1.5 2.2 1z" id="LYTB" name="Trípoli">
  </path>
  <path d="M188 104.1l13.6-3.2 1.4-3.6 5-2.4 4.5-2.2 2.9-3.9 7.2-4.8 2.3-3.8 3-9.8 1.1-0.9 9 1 5.5-0.4 14.4-4.3 1.7-0.7 0 0.4 0 0.5 0.4 5.6-2 4.2-0.2 0.4-6 3.2-2.5 4.5-1.6 2.9-4.3 10.5 0.4 4.8-0.6 5.2-4.8 0.7-2.8 0.7-2.2 0.5-4.4-1.4-4.8-1.4-5.1-2.1-6.3 0.5-8.6-0.2-16.2-0.5z" id="LYZA" name="Az Zawiyah">
  </path>
  <path d="M844.7 110.3l-0.1 0.4-1.8 6-2.9 8.1-2.9 10.5-0.7 12.2-2 10.6-4.9 7.3-1.7 11.5 0 10.3 0.7 5 0 13.9-4.6 0.5-5.7 0.1-5.8-1.7-4-0.9-6.2-4.3-3.2-6.7-7-6.3-4.4-3.9-8.5 1.7-11.2-10.9 1.8-7.2 1.1-5 0-10.9 1.3-3.7 0.6-7.5-0.1-6.9 0.3-11-1.4-6.3-0.1-5.9-1.1-6 1-2.2 0.8-5 1.7-5 0.8-3.8-0.5-5-1.8-3.8-1.4-5.1 0.5-5.7 0.1-4.3 0.1 0 0.3-0.8 6.3-0.7 0.3-0.2 0.6-1 0.3-0.2 1.3-0.2 0.6-0.1 0.7 0.3 0.4 0.4 0.1 0.4 0 0.4 0.2 0.7 1.9 1.9 2.3 0.5 5.3 0 2.3 0.8 5.7 4.3 1.1 0.7 1 0.4 1 0.2 2.7 0.2 13.5 4.2 3.1 2 1.1 0.3 0.6 0.2 1.9 0.7 0.8 0.2 2-0.2 1.3 0.5 2.4 1.2 2.6 0.4 1.1 0.5 0.8 0.7 0.1 1-0.3 0.7-1 1.2-0.2 0.6 0.5 4.2 0.5 1.1 0.9 0.8 1.2 0.7-0.5 1.4-0.7 4.3-1.1-0.5 0.2-0.6-0.2-0.6-0.3-0.6-0.5-0.5-0.9 5.6 0.1 1.4 0.8 0.7 3.5 1.4 1.3 0.2 1 0.6 1.1 1.3 0.9 1.5 0.8 2 0.4 0.3z" id="LYDR" name="Derna">
  </path>
  <path d="M779 184.6l-8.1 0.8-10.3 1-4.4 1.8-0.3-14.5-1.8-1.6-1.5-3.2-2.2-8.2 0.2-7.8 2.3-5.9 0.5-6.5-0.3-9.1-1.8-6.3-6.1-4.9-3.7-4.1-2-6.7-3.6-6.6-1.7-7-0.2-5.7 3.3-4 4.2-4.3-0.2-4.4-3.7-4.8-0.4-0.9-0.1 0.1-0.5 0-0.5 0.3-0.5 0-0.1-0.4 3.3-0.9 2.3-1.3 8.9-8.1 0.8-0.4 2.8-0.2 2.6-0.7 1.6 1.3 2.5 1 2.8 0.7 2.4 0.2 6.3-0.7-0.3 0.8-0.1 0-0.1 4.3-0.5 5.7 1.4 5.1 1.8 3.8 0.5 5-0.8 3.8-1.7 5-0.8 5-1 2.2 1.1 6 0.1 5.9 1.4 6.3-0.3 11 0.1 6.9-0.6 7.5-1.3 3.7 0 10.9-1.1 5-1.8 7.2 11.2 10.9z" id="LYJA" name="Al Jabal al Akhdar">
  </path>
  <path d="M756.2 188.2l-3.5 1.5-14.9 0.7-4.5-0.1-1.8-16.3-2.6-5.3-1.1-6.9-0.5-5.6-4-3.9-3.1 0.9-6.9 0.5-7.5-1.1-4.4 0.2-4.7 2.1-7.8-1.4-2.5-3.4-2.3-7.3-3.1-5.4-3.6-7.5-2.3-7.3 0.1-5 2.6-7.5 4.2-5.9 5.2-4.6 2.6-4.4 0.8-7.5-0.2-1.1 12.8-5.5 7.9-5.4 6.7-3.4 2.7-0.6 10.9 0.7 2.6-0.3 1.5-0.4 0.1 0.4 0.5 0 0.5-0.3 0.5 0 0.1-0.1 0.4 0.9 3.7 4.8 0.2 4.4-4.2 4.3-3.3 4 0.2 5.7 1.7 7 3.6 6.6 2 6.7 3.7 4.1 6.1 4.9 1.8 6.3 0.3 9.1-0.5 6.5-2.3 5.9-0.2 7.8 2.2 8.2 1.5 3.2 1.8 1.6 0.3 14.5z" id="LYMJ" name="Al Marj">
  </path>
  <path d="M733.3 190.3l-22.2-0.8-11.3 2.2-8.3 0.5-4.1-1.3-6.1-4.2-4.3-5.8-2.5-3.9-6.4-2.1-3.2 0.2 0.2 0.6 0.6 0.7 0.2 0.3 0.2 0.6-0.7 0.3-0.8-1.3-1.4-4.5-1.2-1.8-2.6-2.7-0.9-1.4-3.9-11-0.3-2.8-0.1-3-0.2-1.1-1-2.6-0.3-1.2-0.2-2.8 0.1-3.1 0.8-5.7 0.8-2.5-0.1-0.7-0.2-0.8-0.1-0.7 0.2-0.7 0.8-1 5.2-11.1 1.4-2.1 10.9-11.1 0.9-1.5 2.8-3.3 1.2-0.7 2.3-1 1-0.9 0.8-0.8 8.4-6.7 0.7-0.4 0.2 1.1-0.8 7.5-2.6 4.4-5.2 4.6-4.2 5.9-2.6 7.5-0.1 5 2.3 7.3 3.6 7.5 3.1 5.4 2.3 7.3 2.5 3.4 7.8 1.4 4.7-2.1 4.4-0.2 7.5 1.1 6.9-0.5 3.1-0.9 4 3.9 0.5 5.6 1.1 6.9 2.6 5.3 1.8 16.3z" id="LYBA" name="Benghazi">
  </path>
  <path d="M267.2 102.3l0.9 1.1-3.6 0.4-1.9 1.3-6.1 0.9-5 0.1-8.3 1.2 0.6-5.2-0.4-4.8 4.3-10.5 1.6-2.9 2.5-4.5 6-3.2 0.2-0.4 5 4.9 0.6 5.7 1 7.3-0.2 4.8 2.8 3.8z" id="LYJI" name="Al Jifarah">
  </path>
  <path d="M193.2 352.5l-1.8-11.9-1.4-5.5-5.1-7.2-4.6-7.8 0.1-18.5-2.3-14.1-2.4-15.3-1.7-14.8-0.4-13.6 0.2-11.8-1.5-8.6 0.5-3.8 3-3.2 4.8-7.6 7.7-11.5 5.5-10.1-1-0.4-2.9-5.4-2.4-5.4-1-6 0.5-8.5-0.7-6.8 0.3-8 1-6.8-0.9-5-1-7.3 1-8.6 1.3-6.8 0-8.1 16.2 0.5 8.6 0.2 6.3-0.5 5.1 2.1 4.8 1.4 4.4 1.4 2.2-0.5 2.8-0.7 4.8-0.7 8.3-1.2 5-0.1 6.1-0.9 1.9-1.3 3.6-0.4 2.8 3.2 3.7 4.7 1.6 6.3 0.3 4 3.2 6.1 2.2 10 3.6 7.3 2.7 6.2 1.9 7.2 3.2 4.6 6.3 7.9 3.7 2.2 3.2 2 1 1.2 7.6 14.2 5.2 13.1 3.2 7.8 8.4 4.5 5.4 2.3 6.3 4.6 12.7 3.5 4.5 2.2 0.3 0.2 5 3.6 1.1 10 0.7 8.5-0.1 7.6-2.8 5.1-3.8 4-0.7 1.3-1.8 3.5-3.4 4.7-1.6 3.6 0.2 5 1 4.7 0.2 5.3-0.4 3.4-2.4 3.3-4.6 2.9-7.2 5.3-5 1.5 0.1-3.6-3-3.8-4.8-5.2-6-4.4-7.5-3.7-3.5-2-4.7-1-4.9 1.4-6.5 5.4-3.1 2.8-3.6 4.4-4.6 5.9-2.7 5.7-2.9 4.8-3.5 4.8-3.3 5.3-5.4 7.4-6 6.8-6.4 3.4-5 3.1-3.3 2-3.4 3.1-1.9 4.5-4 4.2-5.7 0.2-5-2.5-0.6-5.1-3.5-0.7-4.6-0.3-4.2-0.5-7-2.9-2.7-0.4-7.3-2.1-1.8 3.5z" id="LYJG" name="Al Jabal al Gharbi">
  </path>
  <path d="M609.4 455.6l-0.1 32.6 0 32.4-2.5-1.2-6-2.1-7.8-1.9-9.1-1.8-6.5-1.7-5.8-0.6-5.9-5.4-5.3-6.2-6.7-3-8.2 2-6.2 3.3-2.7 3.3-7.5 5.5-4.7 1.4-7.5 0.6-4.2 2.7-4.8 2-8.5-3.1-9.8-2.2-8.8-1.8-3.3-4.6-4.6-3.2-4.4-2.7-6.1-6.4-3.1-6.6 0.5-6.6-3.2-4.6-3.5-2-5.1-2.6-2.8-1.3-2.6-3.4-0.5-5.4 0.1-4.7 0.5-4.7 0.1-0.6-1.3-4.4-3.8-2.2-3.7-3.4-3.8-2.2-2.3-2.2-1.8-5-1.6-5.4-5.5-8.4-4.2-6.3 0-1.9 0.1-1.4 1.9-5 2.3-6.2 1.4-5.3-0.9-5.4-5-5.1-4.1-1.2-7.6-2.6-4.7-0.3-7.3 0.8-7.6 4.3-7.3 0.8-6.1-1-1.3-4.8-0.1-5.1-1.9-7.3-6.9-7.4-10.4-6.7-4.2-3.4-3.4-3-3.4-5.2-2.7-5.3-0.8-7.2 0.4-8.1 0.3-6.5 5-1.5 7.2-5.3 4.6-2.9 2.4-3.3 0.4-3.4-0.2-5.3-1-4.7-0.2-5 1.6-3.6 3.4-4.7 1.8-3.5 2.7 1.5 4.3 4.2 4.4 4.9 8.7 2.9 5.6 1.2 4.9 1.8 6.8-0.1 3.8 1.8 1.8 1.8 3.8 6.1 4.3 4.9 8.1 1.1 3.6-3.1 5.6-3.1 5.5-1.9 8 2.4 5.6 1.8 2.7 1.8 1-0.6 6.8 1.8 11.1-0.7 6.2-2.5 7.4 0.6 6.1 5.5 8.7 2.4 5.5 1.9 5.6-5 4.3-2.4 4.3 0 4.9 4.3 1.2 4.9 2.5 6.1 4.9 5.6 4.9 6.1 2.4 7.4 2.4 9.2 6.1 6.1 7.9 5.6 9.2 2.5 6.6 2.1 0-1.1 12.6 4.3 16.5 5 0 0.1 9.7 0.7-0.1 86.9z" id="LYJU" name="Al Jufrah">
  </path>
  <path d="M442.7 451.6l-29.9 8.2-6 1.3-10.9 2-10.9 1.3-10.3 2.6-7.3 1.9-8.4 3.2-4.8 4.9-6 6.2-5.9 6.7-6.6 6.8-10.2 4.4-6.6 2.6-11.4 1.4 0-0.1-0.1-6.5 2.3-7.3 6.5-6.2 3.5-7.3-0.7-3.6-3.1-3.6-2.5-4.8 0.5-8.5-1.3-6.6-2.3-2.5 19.2-2.1 6.1-0.7 3.6-3.1 2.3-3.7 5.4-3.8 6.1-3.7 7.2-4.4 4.2-7.4 8.5-3.8 6.1-0.7 10.3-1.3 3.7-1.9 8.5-3.2 13.3 1.3 0 1.9 4.2 6.3 5.5 8.4 1.6 5.4 1.8 5 2.3 2.2 3.8 2.2 3.7 3.4 3.8 2.2 1.3 4.4-0.1 0.6z" id="LYSB" name="Sabha">
  </path>
  <path d="M307.5 505l-15.3 5.6-10.8 2.7-4.1 3.7-5.9 7.4-5.9 4.4-13.9 1-9.5 3.2-5.4 2-4.7 3.8-7.2 0.8-7.9-1.6-5.9 5-5.8 5-6.6 0.9-10.8 0.9-4.9-1.6-10.4-5-11.2 6.4-3.7-5.5-1.8-7.2 0.7-12.3 2.2-9.5 1.2-8.2 7.7-5.1 13.6-9 15.4-10.8 17.2-12 15.5-12 11.3-8.9 13.7-8.9 10.3-2.7 9.2 1.6 15.9 5 20.6 4 2.3 2.5 1.3 6.6-0.5 8.5 2.5 4.8 3.1 3.6 0.7 3.6-3.5 7.3-6.5 6.2-2.3 7.3 0.1 6.5z" id="LYWD" name="Wadi al Hayaa">
  </path>
 </g>
 <g id="points">
  <circle class="20.18037876754086|10.178282807630787" cx="90.9" cy="885.9" id="0">
  </circle>
  <circle class="25.6544194242571|18.061429022584147" cx="545.5" cy="543" id="1">
  </circle>
  <circle class="32.496970245152404|24.36794599454684" cx="909.1" cy="91.1" id="2">
  </circle>
 </g>
 <g id="label_points">
  <circle class="Nalut" cx="122.1" cy="265" id="LYNL">
  </circle>
  <circle class="An Nuqat al Khams" cx="189.4" cy="78.1" id="LYNQ">
  </circle>
  <circle class="Al Kufrah" cx="777.8" cy="665.8" id="LYKF">
  </circle>
  <circle class="Murzuq" cx="390.5" cy="582.8" id="LYMQ">
  </circle>
  <circle class="Al Butnan" cx="880.6" cy="250.9" id="LYBU">
  </circle>
  <circle class="Oases" cx="720" cy="323.9" id="LYWA">
  </circle>
  <circle class="Ash Shati'" cx="195" cy="416.4" id="LYWS">
  </circle>
  <circle class="Ghat" cx="112" cy="513.6" id="LYGT">
  </circle>
  <circle class="Surt" cx="507.5" cy="246.1" id="LYSR">
  </circle>
  <circle class="Misratah" cx="378.1" cy="190.3" id="LYMI">
  </circle>
  <circle class="Al Marqab" cx="313.6" cy="97.1" id="LYMB">
  </circle>
  <circle class="Trípoli" cx="273.9" cy="77.6" id="LYTB">
  </circle>
  <circle class="Az Zawiyah" cx="231.8" cy="93.2" id="LYZA">
  </circle>
  <circle class="Derna" cx="804.6" cy="131.6" id="LYDR">
  </circle>
  <circle class="Al Jabal al Akhdar" cx="754" cy="97.1" id="LYJA">
  </circle>
  <circle class="Al Marj" cx="714.8" cy="122.5" id="LYMJ">
  </circle>
  <circle class="Benghazi" cx="693.9" cy="173.3" id="LYBA">
  </circle>
  <circle class="Al Jifarah" cx="255.2" cy="93.5" id="LYJI">
  </circle>
  <circle class="Al Jabal al Gharbi" cx="250.8" cy="234.7" id="LYJG">
  </circle>
  <circle class="Al Jufrah" cx="490.2" cy="394.4" id="LYJU">
  </circle>
  <circle class="Sabha" cx="380.2" cy="440.1" id="LYSB">
  </circle>
  <circle class="Wadi al Hayaa" cx="241" cy="496.5" id="LYWD">
  </circle>
 </g>
</svg>